<?xml version="1.0" encoding="UTF-8"?>
<svg id="Layer_1" data-name="Layer 1" xmlns="http://www.w3.org/2000/svg" xmlns:xlink="http://www.w3.org/1999/xlink" viewBox="0 0 1559.82 465.59">
  <defs>
    <style>
      .cls-1 {
        fill: url(#linear-gradient);
      }

      .cls-1, .cls-2, .cls-3, .cls-4, .cls-5, .cls-6, .cls-7, .cls-8, .cls-9, .cls-10 {
        stroke-width: 0px;
      }

      .cls-2 {
        fill: url(#linear-gradient-6);
      }

      .cls-3 {
        fill: url(#linear-gradient-5);
      }

      .cls-11 {
        fill: url(#linear-gradient-13);
        stroke: url(#linear-gradient-14);
      }

      .cls-11, .cls-12, .cls-13, .cls-14 {
        stroke-miterlimit: 10;
        stroke-width: 20px;
      }

      .cls-12 {
        fill: url(#linear-gradient-15);
        stroke: url(#linear-gradient-16);
      }

      .cls-4 {
        fill: url(#linear-gradient-2);
      }

      .cls-5 {
        fill: url(#linear-gradient-7);
      }

      .cls-6 {
        fill: url(#linear-gradient-3);
      }

      .cls-7 {
        fill: url(#linear-gradient-9);
      }

      .cls-8 {
        fill: url(#linear-gradient-8);
      }

      .cls-13 {
        fill: url(#linear-gradient-11);
        stroke: url(#linear-gradient-12);
      }

      .cls-9 {
        fill: url(#linear-gradient-10);
      }

      .cls-14 {
        fill: url(#linear-gradient-17);
        stroke: url(#linear-gradient-18);
      }

      .cls-10 {
        fill: url(#linear-gradient-4);
      }
    </style>
    <linearGradient id="linear-gradient" x1="335.58" y1="32.55" x2="335.58" y2="465.59" gradientUnits="userSpaceOnUse">
      <stop offset="0" stop-color="#76c84d"/>
      <stop offset=".8" stop-color="#1d813b"/>
      <stop offset="1" stop-color="#1a7e3a"/>
    </linearGradient>
    <linearGradient id="linear-gradient-2" x1="454.83" y1="32.6" x2="454.83" y2="465.48" xlink:href="#linear-gradient"/>
    <linearGradient id="linear-gradient-3" x1="202.96" y1="320.43" x2="202.96" y2="369.11" xlink:href="#linear-gradient"/>
    <linearGradient id="linear-gradient-4" x1="223.52" y1="128.66" x2="223.52" y2="176.51" xlink:href="#linear-gradient"/>
    <linearGradient id="linear-gradient-5" x1="144.47" y1="225.15" x2="144.47" y2="273.58" xlink:href="#linear-gradient"/>
    <linearGradient id="linear-gradient-6" x1="96.32" y1="128.63" x2="96.32" y2="176.45" xlink:href="#linear-gradient"/>
    <linearGradient id="linear-gradient-7" x1="79.48" y1="319.79" x2="79.48" y2="369.59" xlink:href="#linear-gradient"/>
    <linearGradient id="linear-gradient-8" x1="24.64" y1="224.75" x2="24.64" y2="274.26" xlink:href="#linear-gradient"/>
    <linearGradient id="linear-gradient-9" x1="199.76" y1="415.87" x2="199.76" y2="465.59" xlink:href="#linear-gradient"/>
    <linearGradient id="linear-gradient-10" x1="189.29" x2="189.29" y2="80.74" xlink:href="#linear-gradient"/>
    <linearGradient id="linear-gradient-11" x1="853.16" y1="124.26" x2="853.16" y2="401.6" gradientUnits="userSpaceOnUse">
      <stop offset="0" stop-color="#76c84d"/>
      <stop offset=".78" stop-color="#1d813b"/>
      <stop offset="1" stop-color="#1a7e3a"/>
    </linearGradient>
    <linearGradient id="linear-gradient-12" y1="114.26" y2="411.6" xlink:href="#linear-gradient-11"/>
    <linearGradient id="linear-gradient-13" x1="1052.62" y1="10" x2="1052.62" y2="395.5" xlink:href="#linear-gradient-11"/>
    <linearGradient id="linear-gradient-14" x1="1052.62" y1="0" x2="1052.62" y2="405.5" xlink:href="#linear-gradient-11"/>
    <linearGradient id="linear-gradient-15" x1="1197.15" y1="34.17" x2="1197.15" y2="395.5" xlink:href="#linear-gradient-11"/>
    <linearGradient id="linear-gradient-16" x1="1197.15" y1="24.17" x2="1197.15" y2="405.5" xlink:href="#linear-gradient-11"/>
    <linearGradient id="linear-gradient-17" x1="1423.23" x2="1423.23" xlink:href="#linear-gradient-11"/>
    <linearGradient id="linear-gradient-18" x1="1423.23" y1="114.26" x2="1423.23" y2="411.6" xlink:href="#linear-gradient-11"/>
  </defs>
  <g>
    <path class="cls-1" d="M671.15,249.43c-1.8-1.52-2.88-2.55-4.08-3.42-56.2-40.55-112.33-81.21-168.66-121.59-40.21-28.83-80.76-57.2-120.99-86-5.56-3.98-11.03-6.29-17.93-5.74-5.96.47-11.99.14-17.99.14-23.66,0-47.33-.1-70.99.02-13.98.07-23.78,10.49-23.34,24.41.43,13.51,10,22.79,24.01,22.85,26.99.12,53.98-.06,80.97.08,13.77.07,24.75,10.5,25.13,23.4.38,13.14-10.22,24.1-24.23,24.91-4.32.25-8.67.02-12.99.23-11.67.55-21.36,10.47-21.73,22.1-.46,14.65,9.88,25.51,24.66,25.58,23.33.11,46.66,0,69.99.05,8.21.02,15.54,2.45,20.64,9.25,5.74,7.65,7.13,16.17,3.08,24.97-4.24,9.22-12.06,13.75-21.92,14.1-13.48.47-26.99.38-40.49.4-36.99.06-73.99.08-110.98.08-9.92,0-17.46,4.15-22,12.94-8.45,16.33,3.2,35.23,21.86,35.28,40.83.11,81.65-.03,122.48-.07,8,0,16-.17,23.99.04,10.87.29,19.43,6.78,22.52,16.71,4.71,15.14-6.28,30.24-22.44,30.34-28.16.17-56.32.02-84.49.06-2.65,0-5.38.08-7.92.72-11.9,2.99-19.1,13.59-17.83,25.93,1.23,11.95,10.98,21.5,22.87,21.88,10.66.34,21.34-.09,31.99.37,9.84.43,17.02,5.56,21.01,14.56,3.78,8.53,2.51,16.69-3.33,23.92-5.18,6.41-12.21,8.9-20.32,8.88-23.66-.05-47.33-.09-70.99.01-14.13.06-24.53,10.15-24.59,23.51-.05,13.9,10.49,24.94,24.52,25.02,28.83.18,57.66.11,86.48-.02,2.15,0,4.64-.82,6.4-2.07,30.22-21.32,60.45-42.62,90.47-64.22,62.75-45.14,125.38-90.46,188.05-135.71,6.19-4.47,12.34-8.99,19.12-13.93ZM203.08,320.44v.05c-13.82,0-27.65-.03-41.47,0-14.93.04-25.55,9.74-25.75,23.42-.21,14.62,9.96,25.02,25.18,25.1,28.15.14,56.3.09,84.45-.12,14.22-.1,24.79-11.03,24.59-24.83-.2-13.74-10.59-23.59-25.02-23.63-13.99-.04-27.98,0-41.97,0ZM222.74,176.42v.06c14.32,0,28.65.07,42.97-.02,11.62-.08,20.23-7.04,22.65-18.04,3.47-15.79-7.46-29.68-23.7-29.73-27.65-.08-55.29.04-82.94.11-13.89.03-23.54,9.4-23.68,22.9-.15,14.41,9.57,24.61,23.72,24.71,13.66.1,27.31.02,40.97.02ZM144.75,273.55v-.04c12,0,23.99.1,35.99-.03,14.04-.14,23.81-10.09,23.89-24.1.08-14.42-9.11-24.07-23.51-24.15-24.16-.13-48.32-.1-72.48.05-14.7.09-24.43,9.9-24.32,24.08.11,14.09,10.1,24.04,24.44,24.16,12,.1,23.99.02,35.99.02ZM96.2,176.39v.04c3.5,0,7,.07,10.5-.01,13.24-.3,23.22-10.29,23.25-23.22.03-13.63-9.88-24.15-23.22-24.46-6.83-.16-13.67-.13-20.5-.01-13.25.23-23.55,10.6-23.54,23.58,0,13.44,10.1,23.79,23.52,24.07,3.33.07,6.67.01,10,.01ZM104.42,344.61c.07-13.82-10.8-24.82-24.54-24.83-13.76-.01-25.18,10.96-25.34,24.33-.16,13.85,11.01,25.37,24.71,25.47,13.74.1,25.1-11.17,25.16-24.98ZM49.28,249.82c.14-14.1-10.7-25.04-24.83-25.07-13.43-.03-24.28,10.54-24.45,23.81-.18,14.44,10.24,25.49,24.22,25.69,13.62.19,24.92-10.83,25.05-24.44ZM224.26,440.64c.06-13.68-11.02-24.82-24.63-24.78-13.16.04-24.35,11.37-24.36,24.66-.01,13.9,10.76,24.96,24.42,25.06,13.38.11,24.51-11.19,24.57-24.95ZM165.17,56.13c-.05,14.36,9.71,24.47,23.74,24.61,13.82.14,24.4-9.99,24.5-23.46.11-14.62-9.66-24.65-24.1-24.72-13.99-.07-24.1,9.81-24.15,23.58Z"/>
    <path class="cls-4" d="M671.15,249.43c-6.78,4.94-12.93,9.46-19.12,13.93-62.67,45.25-125.3,90.56-188.05,135.71-30.02,21.6-60.25,42.9-90.47,64.22-1.76,1.24-4.25,2.06-6.4,2.07-28.83.13-57.66.2-86.48.02-14.03-.09-24.57-11.12-24.52-25.02.05-13.37,10.45-23.45,24.59-23.51,23.66-.1,47.32-.06,70.99-.01,8.12.02,15.15-2.47,20.32-8.88,5.84-7.23,7.11-15.39,3.33-23.92-3.99-9-11.17-14.13-21.01-14.56-10.65-.46-21.33-.03-31.99-.37-11.88-.38-21.64-9.93-22.87-21.88-1.27-12.34,5.92-22.94,17.83-25.93,2.54-.64,5.27-.71,7.92-.72,28.16-.04,56.32.1,84.49-.06,16.16-.1,27.16-15.2,22.44-30.34-3.09-9.93-11.65-16.42-22.52-16.71-7.99-.21-16-.05-23.99-.04-40.83.04-81.65.18-122.48.07-18.66-.05-30.31-18.95-21.86-35.28,4.54-8.79,12.08-12.94,22-12.94,36.99,0,73.99-.01,110.98-.08,13.5-.02,27,.07,40.49-.4,9.86-.35,17.68-4.88,21.92-14.1,4.05-8.81,2.66-17.32-3.08-24.97-5.1-6.81-12.43-9.24-20.64-9.25-23.33-.05-46.66.06-69.99-.05-14.78-.07-25.11-10.92-24.66-25.58.36-11.63,10.06-21.55,21.73-22.1,4.32-.2,8.67.02,12.99-.23,14.01-.81,24.62-11.77,24.23-24.91-.38-12.91-11.37-23.34-25.13-23.4-26.99-.13-53.98.04-80.97-.08-14.02-.06-23.58-9.35-24.01-22.85-.44-13.91,9.36-24.33,23.34-24.41,23.66-.12,47.33-.02,70.99-.02,6,0,12.03.33,17.99-.14,6.91-.55,12.37,1.76,17.93,5.74,40.24,28.8,80.78,57.17,120.99,86,56.33,40.38,112.46,81.04,168.66,121.59,1.2.86,2.27,1.9,4.08,3.42Z"/>
    <path class="cls-6" d="M203.08,320.44c13.99,0,27.98-.03,41.97,0,14.42.04,24.82,9.89,25.02,23.63.2,13.8-10.37,24.73-24.59,24.83-28.15.21-56.3.26-84.45.12-15.22-.08-25.38-10.48-25.18-25.1.19-13.68,10.82-23.38,25.75-23.42,13.82-.04,27.65,0,41.47,0v-.05Z"/>
    <path class="cls-10" d="M222.74,176.42c-13.66,0-27.31.08-40.97-.02-14.16-.1-23.88-10.3-23.72-24.71.14-13.5,9.79-22.86,23.68-22.9,27.65-.07,55.29-.19,82.94-.11,16.24.05,27.17,13.94,23.7,29.73-2.42,11-11.04,17.97-22.65,18.04-14.32.1-28.65.02-42.97.02v-.06Z"/>
    <path class="cls-3" d="M144.75,273.55c-12,0-23.99.08-35.99-.02-14.34-.12-24.33-10.07-24.44-24.16-.11-14.18,9.62-23.99,24.32-24.08,24.16-.16,48.32-.19,72.48-.05,14.4.08,23.59,9.73,23.51,24.15-.08,14.01-9.85,23.96-23.89,24.1-11.99.12-23.99.03-35.99.03v.04Z"/>
    <path class="cls-2" d="M96.2,176.39c-3.33,0-6.67.06-10-.01-13.42-.28-23.51-10.63-23.52-24.07,0-12.98,10.29-23.35,23.54-23.58,6.83-.12,13.67-.15,20.5.01,13.34.31,23.26,10.82,23.22,24.46-.03,12.93-10.01,22.92-23.25,23.22-3.5.08-7,.01-10.5.01v-.04Z"/>
    <path class="cls-5" d="M104.42,344.61c-.07,13.8-11.43,25.08-25.16,24.98-13.7-.1-24.87-11.62-24.71-25.47.16-13.38,11.58-24.35,25.34-24.33,13.74.01,24.6,11.01,24.54,24.83Z"/>
    <path class="cls-8" d="M49.28,249.82c-.13,13.6-11.44,24.63-25.05,24.44C10.25,274.06-.18,263,0,248.56c.17-13.27,11.02-23.84,24.45-23.81,14.13.03,24.96,10.96,24.83,25.07Z"/>
    <path class="cls-7" d="M224.26,440.64c-.06,13.75-11.19,25.05-24.57,24.95-13.66-.11-24.44-11.17-24.42-25.06.01-13.29,11.2-24.62,24.36-24.66,13.62-.04,24.7,11.1,24.63,24.78Z"/>
    <path class="cls-9" d="M165.17,56.13c.05-13.77,10.16-23.64,24.15-23.58,14.43.07,24.21,10.1,24.1,24.72-.1,13.47-10.68,23.6-24.5,23.46-14.04-.14-23.79-10.25-23.74-24.61Z"/>
  </g>
  <g>
    <path class="cls-13" d="M954.84,387.44c-30.83,9.44-57.46,14.16-79.89,14.16s-44.87-6.39-64.4-19.18-34.26-29.61-44.18-50.46c-9.93-20.85-14.89-44.39-14.89-70.62,0-39.1,10.73-71.72,32.2-97.87,21.46-26.15,54.63-39.22,99.5-39.22,20.65,0,43.57,2.85,68.75,8.54v40.28c-26.87-7.97-48.75-11.96-65.64-11.96-26.71,0-46.82,10.06-60.33,30.19-13.52,20.13-20.27,43.96-20.27,71.5,0,29.82,7.6,53.94,22.81,72.35,15.21,18.42,34.96,27.62,59.26,27.62,21.72,0,44.09-5.62,67.1-16.85v41.5Z"/>
    <path class="cls-11" d="M1028.57,395.5V10h48.1v385.5h-48.1Z"/>
    <path class="cls-12" d="M1173.11,82.27v-48.1h48.1v48.1h-48.1ZM1173.11,395.5V130.36h48.1v265.14h-48.1Z"/>
    <path class="cls-14" d="M1423.23,401.6c-25.25,0-47.21-5.17-65.86-15.51-18.65-10.35-33.44-26.63-44.35-48.87-10.92-22.24-16.37-47.04-16.37-74.41,0-25.74,4.97-49.64,14.91-71.72,9.94-22.07,24.39-38.73,43.38-49.97,18.98-11.24,41.74-16.86,68.3-16.86s47.25,5.13,65.98,15.4c18.73,10.26,33.52,26.55,44.35,48.87,10.83,22.32,16.25,47.08,16.25,74.28s-5.05,50.14-15.15,72.21c-10.1,22.07-24.56,38.69-43.38,49.85-18.82,11.16-41.5,16.74-68.06,16.74ZM1423.11,365.47c24,0,42.61-8.92,55.84-26.76,13.23-17.85,19.84-43.14,19.84-75.9s-6.66-58.21-19.96-75.89c-13.31-17.68-31.88-26.52-55.72-26.52s-42.37,8.84-55.6,26.52c-13.23,17.68-19.84,42.98-19.84,75.89s6.61,58.05,19.84,75.9c13.23,17.84,31.76,26.76,55.6,26.76Z"/>
  </g>
</svg>