<?xml version="1.0" encoding="UTF-8"?>
<!-- Generator: visioncortex VTracer 0.6.4 -->
<svg version="1.1" xmlns="http://www.w3.org/2000/svg" width="536" height="536">
<path d="M0 0 C1.72 0.4 1.72 0.4 3.48 0.81 C33.74 8.64 59.68 28.15 75.69 54.94 C84.17 69.7 91.1 86.81 91 104 C91.62 104 92.24 104 92.87 104 C107.88 103.98 122.88 103.96 137.89 103.95 C145.14 103.94 152.4 103.94 159.66 103.92 C165.98 103.91 172.3 103.91 178.62 103.91 C181.97 103.9 185.32 103.9 188.67 103.89 C192.4 103.89 196.14 103.89 199.87 103.89 C200.99 103.88 202.11 103.88 203.26 103.88 C204.27 103.88 205.28 103.88 206.32 103.88 C207.65 103.88 207.65 103.88 209 103.88 C211 104 211 104 212 105 C212 112.92 212 120.84 212 129 C172.07 129 132.14 129 91 129 C90.67 132.96 90.34 136.92 90 141 C89.38 143.85 88.74 146.49 87.88 149.25 C87.66 149.96 87.44 150.68 87.21 151.42 C81.03 170.85 71.35 187.52 57 202 C56.3 202.75 55.6 203.5 54.88 204.27 C36.41 223.7 7.08 235.34 -19.48 236.24 C-54.86 236.87 -85.12 225.2 -110.75 200.69 C-128.69 182.09 -143 155.23 -143 129 C-183.26 129 -223.52 129 -265 129 C-265 121.08 -265 113.16 -265 105 C-205.11 104.5 -205.11 104.5 -144 104 C-143.01 98.39 -142.02 92.78 -141 87 C-140.2 83.9 -139.42 81 -138.38 78 C-138.12 77.27 -137.87 76.53 -137.61 75.78 C-126.79 45.61 -104.44 22.04 -75.69 8.31 C-51.63 -2.73 -25.81 -6.15 0 0 Z " fill="#7551AB" transform="translate(294,143)"/>
<path d="M0 0 C1.78 0 1.78 0 3.59 0 C4.25 -0 4.91 -0 5.59 -0 C7.83 -0.01 10.06 -0 12.3 0 C13.91 0 15.52 0 17.13 0 C21.57 -0 26.02 0 30.46 0.01 C35.25 0.01 40.03 0.01 44.82 0.01 C53.11 0.01 61.41 0.01 69.71 0.02 C81.7 0.03 93.7 0.03 105.7 0.03 C125.16 0.03 144.62 0.04 164.08 0.05 C182.99 0.06 201.89 0.07 220.8 0.07 C221.97 0.07 223.13 0.07 224.33 0.07 C230.18 0.07 236.02 0.07 241.86 0.07 C290.37 0.08 338.87 0.1 387.38 0.12 C387.54 2.82 387.7 5.51 387.87 8.21 C387.91 8.96 387.96 9.72 388.01 10.49 C388.41 17.11 388.52 23.71 388.51 30.35 C388.51 31.57 388.51 32.8 388.51 34.06 C388.51 37.4 388.51 40.75 388.5 44.09 C388.5 46.21 388.5 48.32 388.5 50.44 C388.47 91 387.91 131.56 387.38 172.12 C383.08 172.15 378.79 172.17 374.5 172.19 C372.67 172.2 372.67 172.2 370.79 172.21 C369.63 172.22 368.46 172.22 367.26 172.22 C366.18 172.23 365.1 172.23 363.99 172.24 C361.38 172.12 361.38 172.12 359.38 171.12 C359.38 124.26 359.38 77.4 359.38 29.12 C249.16 29.12 138.94 29.12 25.38 29.12 C25.38 75.98 25.38 122.84 25.38 171.12 C24.38 172.12 24.38 172.12 21.78 172.24 C20.66 172.23 19.53 172.23 18.37 172.22 C17.16 172.22 15.94 172.22 14.69 172.21 C13.41 172.2 12.13 172.2 10.81 172.19 C9.53 172.18 8.25 172.18 6.92 172.17 C3.74 172.16 0.56 172.14 -2.62 172.12 C-3.58 168.1 -3.75 164.36 -3.75 160.23 C-3.75 159.55 -3.75 158.86 -3.76 158.16 C-3.76 155.89 -3.76 153.61 -3.75 151.33 C-3.76 149.7 -3.76 148.07 -3.76 146.43 C-3.76 142 -3.76 137.56 -3.76 133.13 C-3.76 128.49 -3.76 123.86 -3.76 119.22 C-3.76 111.44 -3.76 103.66 -3.76 95.88 C-3.75 86.87 -3.75 77.86 -3.76 68.86 C-3.76 61.13 -3.76 53.4 -3.76 45.67 C-3.76 41.06 -3.76 36.44 -3.76 31.82 C-3.76 27.48 -3.76 23.15 -3.76 18.81 C-3.75 17.21 -3.76 15.62 -3.76 14.02 C-3.76 11.85 -3.76 9.68 -3.75 7.51 C-3.75 6.3 -3.75 5.08 -3.75 3.83 C-3.58 0.24 -3.58 0.17 0 0 Z " fill="#785FB3" transform="translate(75.6248899102211,55.875801503658295)"/>
<path d="M0 0 C4.48 -0.03 8.96 -0.05 13.44 -0.06 C14.72 -0.07 16 -0.08 17.31 -0.09 C19.14 -0.09 19.14 -0.09 21 -0.1 C22.12 -0.1 23.25 -0.11 24.41 -0.11 C27 0 27 0 28 1 C28 47.86 28 94.72 28 143 C138.22 143 248.44 143 362 143 C362 95.81 362 48.62 362 0 C371.24 0 380.48 0 390 0 C390 56.43 390 112.86 390 171 C261.3 171 132.6 171 0 171 C-1.07 167.8 -1.13 165.52 -1.13 162.16 C-1.13 160.93 -1.13 159.71 -1.14 158.46 C-1.13 157.1 -1.13 155.75 -1.13 154.39 C-1.13 152.96 -1.13 151.54 -1.13 150.11 C-1.14 146.23 -1.14 142.35 -1.13 138.47 C-1.13 134.39 -1.13 130.31 -1.14 126.24 C-1.14 119.37 -1.14 112.51 -1.13 105.64 C-1.12 97.75 -1.13 89.86 -1.13 81.97 C-1.14 75.17 -1.14 68.38 -1.13 61.58 C-1.13 57.53 -1.13 53.48 -1.14 49.43 C-1.15 32.93 -1.11 16.47 0 0 Z " fill="#7B50AD" transform="translate(73,292)"/>
<path d="M0 0 C1.78 0 1.78 0 3.59 0 C4.25 -0 4.91 -0 5.59 -0 C7.83 -0.01 10.06 -0 12.3 0 C13.91 0 15.52 0 17.13 0 C21.57 -0 26.02 0 30.46 0.01 C35.25 0.01 40.03 0.01 44.82 0.01 C53.11 0.01 61.41 0.01 69.71 0.02 C81.7 0.03 93.7 0.03 105.7 0.03 C125.16 0.03 144.62 0.04 164.08 0.05 C182.99 0.06 201.89 0.07 220.8 0.07 C221.97 0.07 223.13 0.07 224.33 0.07 C230.18 0.07 236.02 0.07 241.86 0.07 C290.37 0.08 338.87 0.1 387.38 0.12 C387.54 2.82 387.7 5.51 387.87 8.21 C387.91 8.96 387.96 9.72 388.01 10.49 C388.41 17.11 388.52 23.71 388.51 30.35 C388.51 31.57 388.51 32.8 388.51 34.06 C388.51 37.4 388.51 40.75 388.5 44.09 C388.5 46.21 388.5 48.32 388.5 50.44 C388.47 91 387.91 131.56 387.38 172.12 C378.8 172.12 370.22 172.12 361.38 172.12 C361.38 171.79 361.38 171.46 361.38 171.12 C369.63 171.12 377.88 171.12 386.38 171.12 C386.38 115.02 386.38 58.92 386.38 1.12 C335.82 1.27 335.82 1.27 285.26 1.43 C278.41 1.45 271.56 1.47 264.71 1.5 C263.86 1.5 263 1.5 262.11 1.5 C248.34 1.55 234.56 1.59 220.78 1.63 C206.6 1.67 192.41 1.71 178.23 1.76 C169.51 1.79 160.78 1.82 152.06 1.84 C146.05 1.86 140.03 1.87 134.02 1.9 C130.57 1.91 127.12 1.92 123.67 1.93 C105.01 1.97 86.39 2.39 67.75 3.02 C60.97 3.23 54.19 3.33 47.41 3.41 C46.04 3.42 44.68 3.44 43.32 3.46 C37.73 3.54 32.14 3.61 26.55 3.68 C23.73 3.71 20.91 3.75 18.09 3.79 C15.48 3.82 12.86 3.86 10.25 3.88 C9.09 3.9 7.94 3.92 6.75 3.93 C5.22 3.95 5.22 3.95 3.67 3.97 C1.41 3.87 1.41 3.87 0.38 5.12 C0.28 7.16 0.26 9.2 0.26 11.24 C0.26 11.89 0.26 12.53 0.26 13.2 C0.26 15.38 0.27 17.56 0.28 19.74 C0.28 21.3 0.28 22.85 0.28 24.41 C0.29 27.77 0.29 31.13 0.3 34.49 C0.31 39.81 0.32 45.12 0.32 50.44 C0.34 62.69 0.36 74.94 0.38 87.19 C0.4 98.4 0.42 109.61 0.43 120.82 C0.43 126.11 0.44 131.39 0.46 136.67 C0.46 139.96 0.47 143.25 0.47 146.55 C0.47 148.07 0.48 149.6 0.48 151.12 C0.49 153.2 0.49 155.29 0.49 157.37 C0.49 158.54 0.49 159.7 0.5 160.91 C0.38 164.06 -0.03 167.03 -0.62 170.12 C-0 170.12 0.62 170.11 1.26 170.11 C4.07 170.09 6.88 170.07 9.69 170.06 C11.15 170.05 11.15 170.05 12.65 170.04 C14.05 170.03 14.05 170.03 15.49 170.03 C16.78 170.02 16.78 170.02 18.11 170.01 C20.38 170.12 20.38 170.12 23.38 171.12 C23.37 170.42 23.37 169.72 23.37 169 C23.35 151.95 23.33 134.9 23.32 117.85 C23.32 109.6 23.31 101.36 23.3 93.11 C23.29 85.92 23.28 78.73 23.28 71.55 C23.28 67.74 23.28 63.94 23.27 60.13 C23.26 56.55 23.26 52.96 23.26 49.38 C23.26 47.44 23.26 45.5 23.25 43.56 C23.25 42.4 23.25 41.24 23.25 40.05 C23.25 39.04 23.25 38.04 23.25 37 C23.38 34.12 23.38 34.12 24.38 28.12 C134.93 28.12 245.48 28.12 359.38 28.12 C359.38 28.45 359.38 28.78 359.38 29.12 C249.16 29.12 138.94 29.12 25.38 29.12 C25.38 75.98 25.38 122.84 25.38 171.12 C24.38 172.12 24.38 172.12 21.78 172.24 C20.66 172.23 19.53 172.23 18.37 172.22 C17.16 172.22 15.94 172.22 14.69 172.21 C13.41 172.2 12.13 172.2 10.81 172.19 C9.53 172.18 8.25 172.18 6.92 172.17 C3.74 172.16 0.56 172.14 -2.62 172.12 C-3.58 168.1 -3.75 164.36 -3.75 160.23 C-3.75 159.55 -3.75 158.86 -3.76 158.16 C-3.76 155.89 -3.76 153.61 -3.75 151.33 C-3.76 149.7 -3.76 148.07 -3.76 146.43 C-3.76 142 -3.76 137.56 -3.76 133.13 C-3.76 128.49 -3.76 123.86 -3.76 119.22 C-3.76 111.44 -3.76 103.66 -3.76 95.88 C-3.75 86.87 -3.75 77.86 -3.76 68.86 C-3.76 61.13 -3.76 53.4 -3.76 45.67 C-3.76 41.06 -3.76 36.44 -3.76 31.82 C-3.76 27.48 -3.76 23.15 -3.76 18.81 C-3.75 17.21 -3.76 15.62 -3.76 14.02 C-3.76 11.85 -3.76 9.68 -3.75 7.51 C-3.75 6.3 -3.75 5.08 -3.75 3.83 C-3.58 0.24 -3.58 0.17 0 0 Z " fill="#C1D2E9" transform="translate(75.6248899102211,55.875801503658295)"/>
<path d="M0 0 C15.63 -0.02 31.26 -0.04 46.89 -0.05 C54.14 -0.06 61.4 -0.06 68.66 -0.08 C74.98 -0.09 81.3 -0.09 87.62 -0.09 C90.97 -0.1 94.32 -0.1 97.67 -0.11 C101.4 -0.11 105.14 -0.11 108.87 -0.11 C109.99 -0.12 111.11 -0.12 112.26 -0.12 C113.27 -0.12 114.28 -0.12 115.32 -0.12 C116.65 -0.12 116.65 -0.12 118 -0.12 C120 0 120 0 121 1 C121 8.92 121 16.84 121 25 C81.07 25 41.14 25 0 25 C0 24.67 0 24.34 0 24 C39.27 24 78.54 24 119 24 C118.5 23.01 118.5 23.01 118 22 C118 15.4 118 8.8 118 2 C101.5 2 85 2 68 2 C68 2.66 68 3.32 68 4 C64.83 5.02 63.17 4.79 60 4 C58.6 3.98 57.21 3.98 55.81 4 C54.55 4 53.3 4 52 4 C51.5 3.5 51.5 3.5 51 3 C49.59 2.84 48.17 2.75 46.75 2.68 C45.89 2.64 45.04 2.6 44.16 2.56 C43.26 2.52 42.36 2.48 41.44 2.44 C40.54 2.39 39.63 2.35 38.71 2.31 C36.47 2.2 34.24 2.1 32 2 C32 2.66 32 3.32 32 4 C29.37 4.03 26.75 4.05 24.12 4.06 C23.38 4.07 22.63 4.08 21.86 4.09 C16.23 4.11 16.23 4.11 14 3 C13.01 3.33 12.02 3.66 11 4 C10.34 3.67 9.68 3.34 9 3 C7.85 3 6.69 3 5.5 3 C2 3 2 3 0 2 C0 1.34 0 0.68 0 0 Z " fill="#E276A5" transform="translate(385,247)"/>
<path d="M0 0 C8.58 0 17.16 0 26 0 C26 55.77 26 111.54 26 169 C-18.88 169 -63.76 169 -110 169 C-110 168.67 -110 168.34 -110 168 C-94.88 167.19 -79.8 166.87 -64.66 166.92 C-61.14 166.94 -57.61 166.94 -54.09 166.95 C-46.64 166.96 -39.2 166.98 -31.75 167 C-23.04 167.02 -14.33 167.04 -5.62 167.06 C-2.16 167.06 1.31 167.07 4.78 167.09 C6.89 167.09 9 167.09 11.11 167.1 C12.07 167.1 13.04 167.11 14.03 167.11 C14.91 167.11 15.79 167.11 16.69 167.11 C17.84 167.12 17.84 167.12 19.01 167.12 C21.21 167.07 21.21 167.07 24 166 C24 111.55 24 57.1 24 1 C16.74 1.33 9.48 1.66 2 2 C1.67 21.47 1.34 40.94 1 61 C0.67 61 0.34 61 0 61 C0 40.87 0 20.74 0 0 Z " fill="#CD2284" transform="translate(436,293)"/>
<path d="M0 0 C21.78 0 43.56 0 66 0 C66 0.33 66 0.66 66 1 C64.82 1.02 64.82 1.02 63.62 1.03 C56.21 1.13 48.81 1.23 41.41 1.34 C37.6 1.39 33.8 1.45 29.99 1.5 C26.32 1.54 22.65 1.6 18.98 1.65 C17.58 1.67 16.18 1.69 14.77 1.71 C12.81 1.73 10.86 1.76 8.9 1.79 C7.78 1.81 6.66 1.83 5.51 1.84 C3.06 1.72 3.06 1.72 2 3 C1.91 5.04 1.88 7.08 1.89 9.12 C1.89 9.76 1.89 10.41 1.89 11.07 C1.89 13.25 1.89 15.43 1.9 17.61 C1.9 19.17 1.91 20.73 1.91 22.28 C1.91 25.65 1.92 29.01 1.92 32.37 C1.94 37.68 1.94 43 1.95 48.32 C1.96 60.57 1.98 72.82 2.01 85.07 C2.03 96.28 2.04 107.49 2.05 118.7 C2.06 123.98 2.07 129.27 2.08 134.55 C2.09 137.84 2.09 141.13 2.09 144.42 C2.1 145.95 2.1 147.47 2.11 149 C2.11 151.08 2.11 153.16 2.11 155.25 C2.12 156.41 2.12 157.58 2.12 158.78 C2 162 2 162 1 168 C7.93 168 14.86 168 22 168 C22 168.33 22 168.66 22 169 C14.74 169 7.48 169 0 169 C0 113.23 0 57.46 0 0 Z " fill="#1493DA" transform="translate(74,58)"/>
<path d="M0 0 C3.63 0 7.26 0 11 0 C11 0.66 11 1.32 11 2 C12.32 2 13.64 2 15 2 C15.5 3.49 15.5 3.49 16 5 C7.63 6.66 -0.35 7.29 -8.88 7.19 C-9.96 7.19 -11.05 7.19 -12.17 7.19 C-17.21 7.16 -22.05 7.08 -27 6 C-27 5.67 -27 5.34 -27 5 C-25.02 5 -23.04 5 -21 5 C-21 4.01 -21 3.02 -21 2 C-13.81 0.92 -7.22 1.21 0 2 C0 1.34 0 0.68 0 0 Z " fill="#795EB1" transform="translate(276,372)"/>
<path d="M0 0 C12.87 0 25.74 0 39 0 C39 0.66 39 1.32 39 2 C32.07 2 25.14 2 18 2 C18 2.99 18 3.98 18 5 C11.18 5.33 6.08 5.24 0 2 C0 1.34 0 0.68 0 0 Z " fill="#5347A5" transform="translate(237,372)"/>
<path d="M0 0 C0.99 1.49 0.99 1.49 2 3 C2.99 2.34 3.98 1.68 5 1 C5 6.94 5 12.88 5 19 C4.67 18.34 4.34 17.68 4 17 C3.34 17 2.68 17 2 17 C0.7 11.24 -0.26 5.91 0 0 Z " fill="#3C8CD4" transform="translate(151,272)"/>
<path d="M0 0 C0.66 0.66 1.32 1.32 2 2 C1.68 3.34 1.34 4.67 1 6 C1.39 8.68 1.39 8.68 2 11 C1.34 11 0.68 11 0 11 C0.06 11.91 0.12 12.81 0.19 13.75 C-0.02 17.29 -0.65 18.45 -3 21 C-3.43 13.65 -1.82 7.1 0 0 Z " fill="#5DA7DD" transform="translate(154,226)"/>
<path d="M0 0 C4.38 0.52 8.69 1.06 13 2 C11.5 4 11.5 4 9 6 C6.24 6.36 3.8 6.19 1 6 C1 5.34 1 4.68 1 4 C2.65 4 4.3 4 6 4 C6 3.34 6 2.68 6 2 C4.35 2 2.7 2 1 2 C0.67 1.34 0.34 0.68 0 0 Z " fill="#BC65AA" transform="translate(286,142)"/>
<path d="M0 0 C0.66 0 1.32 0 2 0 C1.35 1.67 0.68 3.34 0 5 C-0.45 6.14 -0.45 6.14 -0.92 7.3 C-1.25 8.11 -1.59 8.92 -1.94 9.75 C-2.26 10.53 -2.57 11.31 -2.9 12.11 C-4 14 -4 14 -7 15 C-5.45 9.52 -2.84 4.89 0 0 Z " fill="#64A3DB" transform="translate(166,199)"/>
<path d="M0 0 C0.33 0 0.66 0 1 0 C0.58 5.6 0.08 10.72 -2 16 C-2.66 15.67 -3.32 15.34 -4 15 C-3.72 13.25 -3.42 11.5 -3.12 9.75 C-2.96 8.78 -2.8 7.8 -2.63 6.8 C-2.05 4.23 -1.29 2.28 0 0 Z " fill="#DB66A9" transform="translate(383,279)"/>
<path d="M0 0 C2.97 0 5.94 0 9 0 C9 0.99 9 1.98 9 3 C6.09 3.81 4.54 4.22 1.69 3.06 C1.13 2.71 0.57 2.36 0 2 C0 1.34 0 0.68 0 0 Z " fill="#773B98" transform="translate(287,372)"/>
<path d="M0 0 C3.54 1.91 5.79 3.63 8 7 C5.69 7 3.38 7 1 7 C0.67 4.69 0.34 2.38 0 0 Z " fill="#CF5CA0" transform="translate(339,165)"/>
<path d="M0 0 C0.99 0.33 1.98 0.66 3 1 C1.55 2.34 0.09 3.67 -1.38 5 C-2.19 5.74 -3 6.49 -3.84 7.25 C-6 9 -6 9 -8 9 C-8 8.01 -8 7.02 -8 6 C-6.02 5.34 -4.04 4.68 -2 4 C-2 3.34 -2 2.68 -2 2 C-1.34 2 -0.68 2 0 2 C0 1.34 0 0.68 0 0 Z " fill="#CD7CBB" transform="translate(345,347)"/>
<path d="M0 0 C-5.25 3.18 -10.01 3.66 -16 4 C-13.42 2.28 -11.45 1.31 -8.56 0.31 C-7.42 -0.1 -7.42 -0.1 -6.25 -0.51 C-3.78 -1.05 -2.37 -0.8 0 0 Z " fill="#AFA0D1" transform="translate(242,145)"/>
<path d="M0 0 C0.99 0.33 1.98 0.66 3 1 C0.69 3.64 -1.62 6.28 -4 9 C-4.66 8.34 -5.32 7.68 -6 7 C-4.02 4.69 -2.04 2.38 0 0 Z " fill="#D16FB2" transform="translate(357,334)"/>
<path d="M0 0 C0.33 0.99 0.66 1.98 1 3 C-1.97 5.97 -4.94 8.94 -8 12 C-8 8.04 -6.65 7.17 -4 4.31 C-3.26 3.5 -2.51 2.7 -1.75 1.86 C-1.17 1.25 -0.59 0.63 0 0 Z " fill="#8BAFDE" transform="translate(184,175)"/>
<path d="M0 0 C2.31 0 4.62 0 7 0 C6.67 0.66 6.34 1.32 6 2 C4.68 2 3.36 2 2 2 C2 2.66 2 3.32 2 4 C0.68 4 -0.64 4 -2 4 C-1.34 2.68 -0.68 1.36 0 0 Z " fill="#3555B2" transform="translate(205,356)"/>
<path d="M0 0 C0.33 1.98 0.66 3.96 1 6 C-0.88 5.75 -0.88 5.75 -3 5 C-4.25 2.94 -4.25 2.94 -5 1 C-2 0 -2 0 0 0 Z " fill="#406DC1" transform="translate(188,340)"/>
<path d="M0 0 C0.33 0 0.66 0 1 0 C2.1 4.41 2.08 8.48 2 13 C1.34 12.01 0.68 11.02 0 10 C-0.66 9.67 -1.32 9.34 -2 9 C-1.34 6.03 -0.68 3.06 0 0 Z " fill="#DC6EA7" transform="translate(383,235)"/>
<path d="M0 0 C0.66 0 1.32 0 2 0 C1.72 1.46 1.42 2.92 1.12 4.38 C0.96 5.19 0.8 6 0.63 6.84 C0 9 0 9 -2 11 C-1.86 9.54 -1.71 8.08 -1.56 6.62 C-1.48 5.81 -1.4 5 -1.32 4.16 C-1 2 -1 2 0 0 Z " fill="#DA6AAB" transform="translate(378,295)"/>
<path d="M0 0 C0.66 0.33 1.32 0.66 2 1 C0.26 8.1 0.26 8.1 -3 11 C-2.69 9.54 -2.38 8.08 -2.06 6.62 C-1.89 5.81 -1.71 5 -1.54 4.16 C-1 2 -1 2 0 0 Z " fill="#76B3E1" transform="translate(158,215)"/>
<path d="M0 0 C1.32 0 2.64 0 4 0 C4.33 0.99 4.66 1.98 5 3 C1.37 3.33 -2.26 3.66 -6 4 C-6 3.67 -6 3.34 -6 3 C-4.35 3 -2.7 3 -1 3 C-0.67 2.01 -0.34 1.02 0 0 Z " fill="#A680BF" transform="translate(287,374)"/>
<path d="M0 0 C1.98 0 3.96 0 6 0 C5.01 1.49 5.01 1.49 4 3 C0.38 3.69 0.38 3.69 -3 4 C-2.01 3.67 -1.02 3.34 0 3 C0 2.01 0 1.02 0 0 Z " fill="#A370B5" transform="translate(296,372)"/>
<path d="M0 0 C2.31 0 4.62 0 7 0 C6.67 0.99 6.34 1.98 6 3 C3.03 2.5 3.03 2.5 0 2 C0 1.34 0 0.68 0 0 Z " fill="#3B3FA1" transform="translate(237,372)"/>
<path d="M0 0 C0.66 0.66 1.32 1.32 2 2 C1.67 2.99 1.34 3.98 1 5 C-0.65 4.67 -2.3 4.34 -4 4 C-4 3.34 -4 2.68 -4 2 C-2.68 1.34 -1.36 0.68 0 0 Z " fill="#3D63BB" transform="translate(195,347)"/>
</svg>
