<?xml version="1.0" encoding="UTF-8"?>
<!-- Generator: visioncortex VTracer 0.6.4 -->
<svg version="1.1" xmlns="http://www.w3.org/2000/svg" width="699" height="308">
<path d="M0 0 C10.13 8.8 17.22 20.5 20.06 33.69 C20.06 35.67 20.06 37.65 20.06 39.69 C40.52 39.69 60.98 39.69 82.06 39.69 C83.37 50.11 83.37 50.11 83.06 52.69 C79.62 54.99 78.36 54.93 74.31 54.91 C73.12 54.91 71.94 54.91 70.73 54.91 C69.45 54.9 68.18 54.89 66.86 54.88 C65.56 54.88 64.25 54.88 62.91 54.87 C59.44 54.87 55.97 54.85 52.51 54.82 C48.97 54.8 45.43 54.8 41.89 54.79 C34.95 54.76 28 54.73 21.06 54.69 C20.74 55.92 20.42 57.15 20.08 58.41 C19.64 60.05 19.21 61.68 18.77 63.31 C18.45 64.52 18.45 64.52 18.13 65.76 C16.26 72.64 13.49 78.07 9.06 83.69 C8.41 84.54 7.75 85.38 7.07 86.26 C-2.91 98.21 -16.42 106.41 -31.94 108.69 C-47.99 109.69 -60.75 107.6 -74.94 99.69 C-76.35 98.91 -76.35 98.91 -77.79 98.12 C-78.5 97.65 -79.21 97.18 -79.94 96.69 C-79.94 96.03 -79.94 95.37 -79.94 94.69 C-80.79 94.33 -80.79 94.33 -81.66 93.97 C-91.44 88.45 -97.86 76.18 -100.94 65.69 C-101.32 63.77 -101.68 61.85 -102.02 59.93 C-102.19 58.95 -102.37 57.96 -102.55 56.95 C-102.68 56.2 -102.8 55.46 -102.94 54.69 C-103.71 54.69 -104.49 54.69 -105.28 54.69 C-112.57 54.71 -119.85 54.73 -127.14 54.74 C-130.88 54.74 -134.63 54.75 -138.37 54.76 C-141.98 54.77 -145.6 54.78 -149.21 54.78 C-150.59 54.78 -151.97 54.79 -153.35 54.79 C-155.28 54.8 -157.2 54.8 -159.13 54.8 C-160.23 54.8 -161.33 54.81 -162.46 54.81 C-164.94 54.69 -164.94 54.69 -165.94 53.69 C-166.04 51.52 -166.07 49.35 -166.06 47.19 C-166.07 46 -166.07 44.82 -166.07 43.59 C-165.94 40.69 -165.94 40.69 -164.94 39.69 C-163 39.59 -161.07 39.57 -159.13 39.57 C-157.89 39.57 -156.65 39.57 -155.37 39.57 C-154.01 39.58 -152.64 39.58 -151.28 39.59 C-149.89 39.59 -148.5 39.59 -147.11 39.59 C-143.45 39.6 -139.79 39.61 -136.13 39.62 C-132.39 39.63 -128.66 39.63 -124.93 39.64 C-117.6 39.65 -110.27 39.67 -102.94 39.69 C-102.81 38.87 -102.69 38.06 -102.56 37.21 C-102.39 36.14 -102.22 35.06 -102.04 33.96 C-101.87 32.89 -101.71 31.83 -101.53 30.73 C-100.73 26.65 -99.32 23.22 -97.38 19.56 C-97.02 18.89 -96.67 18.21 -96.31 17.51 C-88.21 2.49 -74.65 -7.65 -58.65 -13.09 C-37.66 -18.82 -16.6 -13.76 0 0 Z " fill="#7250A3" transform="translate(200.9375,108.3125)"/>
<path d="M0 0 C0.88 0.36 1.77 0.72 2.68 1.1 C14.41 6.36 22.96 15.83 28.13 27.56 C33.33 42.47 32.41 59.97 25.75 74.25 C22.14 80.92 17.98 87.59 11 91 C10.47 91.36 9.95 91.73 9.41 92.1 C-4.52 101.72 -21.47 103.93 -37.88 101 C-52.8 97.41 -65.06 90.14 -73.31 76.99 C-80.65 64.59 -82.96 51.53 -80.31 37.29 C-76.67 23.25 -68.84 11.42 -56.81 3.12 C-40.4 -6.41 -17.43 -7.75 0 0 Z M-45.6 29.27 C-52.16 37.38 -51.94 46.99 -51 57 C-50.13 60.39 -48.91 63.08 -47 66 C-46.4 66.93 -45.8 67.86 -45.19 68.81 C-40.04 73.96 -33.12 77.28 -25.81 77.31 C-17.97 77.11 -11.57 75.87 -5.62 70.5 C1.01 63.12 2.67 54.8 2.32 45.08 C1.56 37.73 -0.96 31.47 -6 26 C-18.28 16.34 -35.11 17.72 -45.6 29.27 Z " fill="#B83E87" transform="translate(629,113)"/>
<path d="M0 0 C1.12 -0.03 2.24 -0.06 3.4 -0.09 C13.46 -0.16 22.53 1.92 31.06 7.44 C31.85 7.94 32.63 8.43 33.44 8.95 C35.13 10.07 36.81 11.19 38.5 12.31 C38.5 12.97 38.5 13.63 38.5 14.31 C39.12 14.54 39.74 14.77 40.38 15 C43.11 16.69 43.55 18.3 44.5 21.31 C41.38 24.54 38.14 27.61 34.81 30.62 C34.05 31.32 33.28 32.02 32.49 32.74 C30.5 34.31 30.5 34.31 28.5 34.31 C28.5 34.97 28.5 35.63 28.5 36.31 C26.81 37.12 26.81 37.12 24.5 37.31 C23.32 36.2 22.14 35.06 21.05 33.86 C14.77 27.6 8.48 25.22 -0.25 25 C-7.58 25.07 -12.72 26.97 -18.31 31.69 C-25.99 40.9 -26.26 48.52 -25.72 60.05 C-25.06 66.86 -21.84 71.54 -16.69 75.81 C-9.97 80.26 -2.44 81.27 5.5 80.31 C13.51 78.22 19.75 75.31 24.5 68.31 C28.71 69.74 31.65 71.8 35.06 74.62 C35.99 75.38 36.92 76.14 37.88 76.93 C40.4 79.22 42.45 81.59 44.5 84.31 C43.51 86.29 43.51 86.29 42.5 88.31 C41.84 88.31 41.18 88.31 40.5 88.31 C39.51 90.29 39.51 90.29 38.5 92.31 C37.84 92.31 37.18 92.31 36.5 92.31 C36.5 92.97 36.5 93.63 36.5 94.31 C19.69 104.38 3.95 109.53 -15.81 104.62 C-30.77 100.61 -41.98 92.36 -50.5 79.31 C-57.15 67.68 -58.52 52.61 -55.38 39.69 C-51.18 26.46 -44 15.05 -32.04 7.62 C-21.25 2.04 -11.96 0.1 0 0 Z " fill="#326FBC" transform="translate(389.5,108.6875)"/>
<path d="M0 0 C0.77 0.09 1.54 0.18 2.33 0.27 C4.19 0.62 4.19 0.62 5.19 1.62 C5.19 25.38 5.19 49.15 5.19 73.62 C61.62 73.62 118.05 73.62 176.19 73.62 C176.19 49.87 176.19 26.1 176.19 1.62 C176.52 0.97 176.85 0.31 177.19 -0.38 C179.5 -0.4 181.81 -0.42 184.12 -0.44 C185.41 -0.45 186.7 -0.46 188.03 -0.47 C191.19 -0.38 191.19 -0.38 192.19 0.62 C192.28 3.36 192.31 6.08 192.3 8.82 C192.3 9.68 192.3 10.53 192.3 11.42 C192.3 14.27 192.29 17.12 192.29 19.97 C192.28 21.94 192.28 23.92 192.28 25.89 C192.28 31.09 192.27 36.29 192.26 41.49 C192.25 46.79 192.24 52.09 192.24 57.39 C192.23 67.8 192.21 78.21 192.19 88.62 C189.08 90.18 185.78 89.76 182.36 89.75 C181.54 89.75 180.73 89.76 179.88 89.76 C177.13 89.76 174.37 89.76 171.62 89.75 C169.65 89.76 167.68 89.76 165.71 89.76 C160.35 89.76 154.99 89.76 149.63 89.76 C144.03 89.76 138.44 89.76 132.84 89.76 C123.44 89.76 114.04 89.76 104.64 89.76 C93.76 89.75 82.88 89.75 71.99 89.76 C62.66 89.76 53.34 89.76 44.01 89.76 C38.43 89.76 32.85 89.76 27.27 89.76 C22.03 89.76 16.79 89.76 11.54 89.76 C9.61 89.76 7.68 89.76 5.75 89.76 C3.13 89.76 0.51 89.76 -2.11 89.75 C-2.89 89.75 -3.66 89.76 -4.46 89.76 C-9.7 89.74 -9.7 89.74 -10.81 88.62 C-10.91 85.89 -10.94 83.17 -10.93 80.43 C-10.93 79.57 -10.93 78.72 -10.93 77.83 C-10.93 74.98 -10.92 72.13 -10.91 69.28 C-10.91 67.31 -10.91 65.33 -10.91 63.36 C-10.9 58.16 -10.89 52.96 -10.88 47.76 C-10.87 42.46 -10.87 37.16 -10.86 31.86 C-10.85 21.45 -10.83 11.04 -10.81 0.62 C-7.04 -0.05 -3.81 -0.48 0 0 Z " fill="#78449E" transform="translate(68.8125,171.375)"/>
<path d="M0 0 C66.99 0 133.98 0 203 0 C203 29.04 203 58.08 203 88 C198.05 88 193.1 88 188 88 C187.67 87.67 187.34 87.34 187 87 C187 63.24 187 39.48 187 15 C130.57 15.33 74.14 15.66 16 16 C16 39.76 16 63.52 16 88 C10.72 88 5.44 88 0 88 C0 58.96 0 29.92 0 0 Z " fill="#795EAC" transform="translate(58,51)"/>
<path d="M0 0 C1.26 -0 2.51 -0 3.8 -0 C4.46 -0 5.12 0 5.8 0 C7.8 0.01 9.81 0 11.82 -0 C13.08 -0 14.33 -0 15.62 0 C16.79 0 17.95 0 19.14 0 C21.81 0.13 21.81 0.13 22.81 1.13 C22.93 2.89 22.97 4.65 22.98 6.4 C23 8.12 23 8.12 23.02 9.87 C23.03 11.13 23.04 12.4 23.05 13.7 C23.06 15.04 23.08 16.37 23.09 17.71 C23.12 21.35 23.15 24.99 23.18 28.63 C23.2 30.9 23.22 33.17 23.24 35.45 C23.31 43.37 23.37 51.28 23.43 59.2 C23.48 66.6 23.54 73.99 23.61 81.38 C23.67 87.72 23.73 94.06 23.77 100.4 C23.8 104.19 23.83 107.98 23.87 111.77 C23.91 115.33 23.93 118.89 23.95 122.45 C23.96 124.39 23.99 126.33 24.01 128.26 C24.01 129.41 24.02 130.56 24.02 131.74 C24.03 133.24 24.03 133.24 24.05 134.77 C23.81 137.13 23.81 137.13 21.81 139.13 C19.03 139.38 19.03 139.38 15.53 139.36 C14.28 139.36 13.02 139.36 11.73 139.36 C10.42 139.35 9.1 139.33 7.75 139.32 C6.43 139.32 5.11 139.32 3.76 139.32 C-6.05 139.27 -6.05 139.27 -7.19 138.13 C-7.29 136.36 -7.31 134.59 -7.31 132.82 C-7.32 131.67 -7.32 130.51 -7.32 129.33 C-7.32 128.05 -7.32 126.77 -7.32 125.46 C-7.32 124.11 -7.32 122.76 -7.32 121.41 C-7.33 117.74 -7.32 114.07 -7.32 110.4 C-7.32 106.57 -7.32 102.73 -7.32 98.9 C-7.33 92.46 -7.32 86.02 -7.32 79.58 C-7.31 72.12 -7.31 64.67 -7.32 57.21 C-7.32 50.82 -7.32 44.43 -7.32 38.04 C-7.32 34.22 -7.32 30.4 -7.32 26.58 C-7.33 22.99 -7.32 19.4 -7.32 15.8 C-7.32 13.85 -7.32 11.9 -7.32 9.94 C-7.32 8.79 -7.32 7.63 -7.31 6.45 C-7.31 5.44 -7.31 4.43 -7.31 3.39 C-7.06 -1.2 -3.92 0 0 0 Z " fill="#4755A9" transform="translate(454.1875,73.8671875)"/>
<path d="M0 0 C1.3 -0 2.6 -0 3.94 -0 C4.96 -0 4.96 -0 6 0 C8.09 0.01 10.17 0 12.25 -0 C14.2 -0 14.2 -0 16.19 0 C17.39 0 18.59 0 19.83 0 C22.59 0.13 22.59 0.13 23.59 1.13 C23.69 4.27 23.72 7.38 23.71 10.52 C23.71 11.5 23.71 12.49 23.71 13.5 C23.71 16.78 23.7 20.05 23.69 23.32 C23.69 25.59 23.69 27.85 23.69 30.11 C23.68 36.08 23.67 42.05 23.66 48.02 C23.65 54.11 23.65 60.19 23.64 66.28 C23.63 78.23 23.61 90.18 23.59 102.13 C19.34 102.16 15.09 102.18 10.83 102.19 C9.38 102.19 7.93 102.2 6.49 102.21 C4.41 102.22 2.33 102.23 0.25 102.23 C-1 102.24 -2.25 102.24 -3.54 102.25 C-6.41 102.13 -6.41 102.13 -7.41 101.13 C-7.51 98.03 -7.54 94.96 -7.54 91.86 C-7.54 90.88 -7.54 89.91 -7.54 88.9 C-7.55 85.67 -7.54 82.43 -7.54 79.2 C-7.54 76.96 -7.54 74.72 -7.54 72.48 C-7.54 67.78 -7.54 63.09 -7.54 58.39 C-7.53 52.35 -7.53 46.31 -7.54 40.28 C-7.54 35.65 -7.54 31.03 -7.54 26.41 C-7.54 24.18 -7.54 21.95 -7.54 19.73 C-7.55 16.62 -7.54 13.52 -7.54 10.41 C-7.54 9.48 -7.54 8.55 -7.54 7.59 C-7.52 0.12 -7.37 0.01 0 0 Z " fill="#7A519E" transform="translate(508.40625,109.8671875)"/>
<path d="M0 0 C0.77 0.09 1.54 0.18 2.33 0.27 C4.19 0.62 4.19 0.62 5.19 1.62 C5.19 25.38 5.19 49.15 5.19 73.62 C61.62 73.62 118.05 73.62 176.19 73.62 C176.19 49.87 176.19 26.1 176.19 1.62 C176.52 1.62 176.85 1.62 177.19 1.62 C177.19 25.72 177.19 49.81 177.19 74.62 C166.71 74.72 166.71 74.72 156.02 74.81 C151.58 74.85 147.13 74.89 142.68 74.93 C135.63 75 128.59 75.06 121.54 75.12 C115.85 75.17 110.17 75.22 104.48 75.28 C102.32 75.3 100.16 75.32 98 75.33 C87.73 75.42 77.53 75.56 67.28 76.4 C62.03 76.78 56.78 76.77 51.51 76.76 C50.37 76.76 49.23 76.76 48.06 76.76 C45.68 76.76 43.3 76.76 40.93 76.76 C37.3 76.75 33.67 76.76 30.05 76.76 C27.72 76.76 25.4 76.76 23.07 76.76 C21.46 76.76 21.46 76.76 19.82 76.76 C14.18 76.75 8.76 76.47 3.19 75.62 C2.28 72.92 2.04 71.2 1.97 68.41 C1.94 67.56 1.92 66.71 1.9 65.83 C1.87 64.46 1.87 64.46 1.84 63.05 C1.81 62.09 1.79 61.14 1.77 60.15 C1.72 58.12 1.67 56.09 1.63 54.05 C1.56 50.99 1.49 47.94 1.41 44.88 C1.17 34.79 1.16 24.85 2.05 14.79 C2.23 10.65 1.56 7.51 0.19 3.62 C-1.13 3.96 -2.45 4.28 -3.81 4.62 C-3.81 3.97 -3.81 3.31 -3.81 2.62 C-4.47 2.62 -5.13 2.62 -5.81 2.62 C-8.04 6.21 -8.06 9.15 -8.06 13.32 C-8.06 13.98 -8.06 14.65 -8.06 15.33 C-8.06 17.52 -8.05 19.71 -8.04 21.9 C-8.04 23.43 -8.04 24.95 -8.04 26.48 C-8.04 29.68 -8.03 32.88 -8.02 36.08 C-8 40.17 -8 44.26 -8 48.35 C-8 51.5 -7.99 54.66 -7.99 57.81 C-7.98 59.32 -7.98 60.83 -7.98 62.33 C-7.98 64.45 -7.97 66.56 -7.96 68.67 C-7.95 69.87 -7.95 71.07 -7.95 72.31 C-7.88 75.64 -7.88 75.64 -7.24 78.93 C-6.81 81.62 -6.81 81.62 -7.81 83.62 C-7.15 83.62 -6.49 83.62 -5.81 83.62 C-5.81 84.62 -5.81 85.61 -5.81 86.62 C-4.89 86.62 -3.98 86.62 -3.03 86.62 C34.48 86.52 71.99 86.81 109.5 87.07 C120.12 87.14 130.74 87.21 141.36 87.29 C157.97 87.4 174.58 87.51 191.19 87.62 C191.19 58.91 191.19 30.2 191.19 0.62 C191.52 0.62 191.85 0.62 192.19 0.62 C192.19 29.66 192.19 58.71 192.19 88.62 C189.08 90.18 185.78 89.76 182.36 89.75 C181.54 89.75 180.73 89.76 179.88 89.76 C177.13 89.76 174.37 89.76 171.62 89.75 C169.65 89.76 167.68 89.76 165.71 89.76 C160.35 89.76 154.99 89.76 149.63 89.76 C144.03 89.76 138.44 89.76 132.84 89.76 C123.44 89.76 114.04 89.76 104.64 89.76 C93.76 89.75 82.88 89.75 71.99 89.76 C62.66 89.76 53.34 89.76 44.01 89.76 C38.43 89.76 32.85 89.76 27.27 89.76 C22.03 89.76 16.79 89.76 11.54 89.76 C9.61 89.76 7.68 89.76 5.75 89.76 C3.13 89.76 0.51 89.76 -2.11 89.75 C-2.89 89.75 -3.66 89.76 -4.46 89.76 C-9.7 89.74 -9.7 89.74 -10.81 88.62 C-10.91 85.89 -10.94 83.17 -10.93 80.43 C-10.93 79.57 -10.93 78.72 -10.93 77.83 C-10.93 74.98 -10.92 72.13 -10.91 69.28 C-10.91 67.31 -10.91 65.33 -10.91 63.36 C-10.9 58.16 -10.89 52.96 -10.88 47.76 C-10.87 42.46 -10.87 37.16 -10.86 31.86 C-10.85 21.45 -10.83 11.04 -10.81 0.62 C-7.04 -0.05 -3.81 -0.48 0 0 Z M2.19 6.62 C3.19 9.62 3.19 9.62 3.19 9.62 Z " fill="#A9ACD2" transform="translate(68.8125,171.375)"/>
<path d="M0 0 C66.99 0 133.98 0 203 0 C203 29.04 203 58.08 203 88 C198.05 88 193.1 88 188 88 C187.67 87.67 187.34 87.34 187 87 C187 63.24 187 39.48 187 15 C130.57 15.33 74.14 15.66 16 16 C16 39.76 16 63.52 16 88 C10.72 88 5.44 88 0 88 C0 58.96 0 29.92 0 0 Z M1 1 C1.33 13.54 1.66 26.08 2 39 C2.06 47.63 2.1 56.25 2.06 64.88 C2.06 66.97 2.05 69.06 2.05 71.15 C2.04 76.1 2.02 81.05 2 86 C3.32 86 4.64 86 6 86 C7.05 86.02 8.1 86.04 9.19 86.06 C11.9 86.33 11.9 86.33 13 85 C13 61.9 13 38.8 13 15 C70.75 14.67 128.5 14.34 188 14 C188 38.09 188 62.18 188 87 C192.62 87 197.24 87 202 87 C202 58.62 202 30.24 202 1 C135.67 1 69.34 1 1 1 Z " fill="#9DB7D7" transform="translate(58,51)"/>
<path d="M0 0 C3.71 2.65 6.82 5.31 8.23 9.8 C9.02 14.53 8.6 18.44 6.62 22.88 C2.12 27.9 -1.49 29.69 -8.19 30.12 C-13.45 30.05 -17.54 28.31 -21.69 25.06 C-24.84 20.98 -25.59 17.37 -25.19 12.31 C-24.36 6.8 -22.86 4.02 -18.38 0.56 C-12.6 -2.45 -6.03 -2.01 0 0 Z " fill="#965399" transform="translate(525.375,66.125)"/>
<path d="M0 0 C0.33 0 0.66 0 1 0 C1 1.65 1 3.3 1 5 C-8.6 6.22 -18.2 6.15 -27.85 6.13 C-30.63 6.12 -33.4 6.13 -36.17 6.14 C-37.96 6.14 -39.75 6.13 -41.54 6.13 C-42.35 6.13 -43.17 6.14 -44.01 6.14 C-49.41 6.12 -54.64 5.67 -60 5 C-60 8.3 -60 11.6 -60 15 C-59.28 14.98 -58.56 14.97 -57.83 14.95 C-51.06 14.79 -44.29 14.64 -37.52 14.51 C-34.04 14.43 -30.56 14.36 -27.08 14.28 C-23.08 14.18 -19.08 14.1 -15.08 14.02 C-13.83 13.99 -12.58 13.96 -11.3 13.93 C-10.14 13.91 -8.97 13.89 -7.78 13.86 C-6.25 13.83 -6.25 13.83 -4.68 13.8 C-1.9 14.01 -0.31 14.47 2 16 C3.01 18.09 3.01 18.09 3.69 20.5 C4.64 23.83 4.64 23.83 6 27 C6.36 29.33 6.7 31.66 7 34 C5.02 33.5 5.02 33.5 3 33 C2.5 31.06 2 29.13 1.5 27.19 C1.22 26.11 0.94 25.03 0.66 23.92 C0 21 0 21 0 18 C-0.77 18 -1.55 18 -2.35 18.01 C-9.63 18.03 -16.92 18.04 -24.2 18.05 C-27.94 18.06 -31.69 18.06 -35.44 18.08 C-39.05 18.09 -42.66 18.09 -46.27 18.09 C-47.65 18.1 -49.03 18.1 -50.41 18.11 C-52.34 18.11 -54.27 18.11 -56.2 18.11 C-57.29 18.12 -58.39 18.12 -59.53 18.12 C-62 18 -62 18 -63 17 C-63.1 14.84 -63.13 12.67 -63.12 10.5 C-63.13 9.31 -63.13 8.13 -63.13 6.91 C-63 4 -63 4 -62 3 C-60.07 2.91 -58.13 2.88 -56.2 2.89 C-54.95 2.89 -53.71 2.89 -52.43 2.89 C-51.07 2.89 -49.7 2.9 -48.34 2.9 C-46.95 2.9 -45.56 2.91 -44.17 2.91 C-40.51 2.91 -36.85 2.92 -33.19 2.93 C-29.46 2.94 -25.72 2.95 -21.99 2.95 C-14.66 2.96 -7.33 2.98 0 3 C0 2.01 0 1.02 0 0 Z " fill="#91C7E4" transform="translate(98,145)"/>
<path d="M0 0 C0.33 0 0.66 0 1 0 C1.13 11.97 1.26 23.95 1.39 35.92 C1.45 41.49 1.51 47.05 1.57 52.61 C1.88 80.41 2.07 108.2 2 136 C10.91 136 19.82 136 29 136 C29 91.12 29 46.24 29 0 C29.33 0 29.66 0 30 0 C30.18 17.7 30.34 35.4 30.49 53.09 C30.57 61.31 30.64 69.53 30.72 77.74 C30.8 84.9 30.86 92.06 30.92 99.22 C30.95 103.02 30.98 106.81 31.03 110.6 C31.07 114.17 31.1 117.74 31.12 121.3 C31.13 123.24 31.16 125.18 31.19 127.12 C31.19 128.27 31.2 129.41 31.2 130.6 C31.21 131.6 31.22 132.6 31.23 133.63 C31 136 31 136 29 138 C26.22 138.24 26.22 138.24 22.71 138.23 C21.46 138.23 20.21 138.23 18.92 138.22 C17.61 138.21 16.29 138.2 14.94 138.19 C13.62 138.19 12.3 138.19 10.94 138.19 C1.14 138.14 1.14 138.14 0 137 C-0.1 135.23 -0.12 133.45 -0.12 131.68 C-0.12 130.52 -0.12 129.37 -0.12 128.18 C-0.12 126.9 -0.12 125.63 -0.11 124.31 C-0.11 122.96 -0.11 121.61 -0.11 120.26 C-0.11 116.59 -0.11 112.91 -0.1 109.23 C-0.1 105.4 -0.09 101.56 -0.09 97.72 C-0.09 90.45 -0.08 83.18 -0.07 75.91 C-0.06 67.64 -0.06 59.36 -0.05 51.08 C-0.04 34.06 -0.02 17.03 0 0 Z " fill="#B0B8D7" transform="translate(447,75)"/>
<path d="M0 0 C5.67 4.96 8.44 13.78 10 21 C10 22.98 10 24.96 10 27 C30.46 27 50.92 27 72 27 C73.3 37.42 73.3 37.42 73 40 C69.55 42.3 68.3 42.24 64.24 42.23 C63.06 42.23 61.88 42.23 60.66 42.23 C59.39 42.22 58.11 42.21 56.8 42.2 C55.5 42.19 54.19 42.19 52.85 42.19 C49.38 42.18 45.91 42.16 42.44 42.14 C38.9 42.12 35.37 42.11 31.83 42.1 C24.88 42.08 17.94 42.04 11 42 C10.34 43.32 9.68 44.64 9 46 C8.96 44.33 8.96 42.67 9 41 C10 40 10 40 12.44 39.88 C14.06 39.88 14.06 39.88 15.71 39.89 C16.93 39.89 18.16 39.89 19.41 39.89 C20.76 39.89 22.1 39.9 23.44 39.9 C24.81 39.9 26.17 39.91 27.54 39.91 C31.14 39.91 34.74 39.92 38.35 39.93 C42.02 39.94 45.69 39.95 49.37 39.95 C56.58 39.96 63.79 39.98 71 40 C71 37.36 71 34.72 71 32 C70.34 32 69.68 32 69 32 C69 31.01 69 30.02 69 29 C68 29.24 68 29.24 66.97 29.49 C63.44 30.1 60.01 30.15 56.44 30.12 C55.66 30.12 54.88 30.12 54.08 30.12 C39.05 30.02 24.02 29.46 9 29 C9 26.69 9 24.38 9 22 C8.34 22 7.68 22 7 22 C7 20.35 7 18.7 7 17 C6.34 16.67 5.68 16.34 5 16 C4.22 14.04 4.22 14.04 3.5 11.62 C2.59 8.57 1.8 6.71 0 4 C0 2.68 0 1.36 0 0 Z " fill="#EFBAD1" transform="translate(211,121)"/>
<path d="M0 0 C4.62 0 9.24 0 14 0 C14 29.04 14 58.08 14 88 C-8.44 88 -30.88 88 -54 88 C-49.54 85.77 -46.22 85.73 -41.38 85.77 C-40.53 85.77 -39.68 85.77 -38.81 85.77 C-36.06 85.77 -33.31 85.79 -30.56 85.81 C-28.69 85.82 -26.82 85.83 -24.95 85.83 C-12.61 85.89 -0.31 86.15 12 87 C12.33 83.37 12.66 79.74 13 76 C12.34 76 11.68 76 11 76 C11.16 75.32 11.32 74.63 11.49 73.93 C12.07 70.61 12.16 67.47 12.21 64.1 C12.22 63.42 12.23 62.75 12.24 62.06 C12.27 59.84 12.29 57.63 12.32 55.42 C12.34 53.88 12.36 52.34 12.38 50.8 C12.43 46.76 12.48 42.71 12.53 38.67 C12.58 34.54 12.64 30.41 12.69 26.28 C12.8 18.19 12.9 10.09 13 2 C12.11 2.26 12.11 2.26 11.2 2.53 C8.28 3.15 5.9 2.59 3 2 C1.96 9.58 1.9 17 1.97 24.64 C1.98 26.61 1.99 28.58 2 30.54 C2.02 35.36 2.06 40.17 2.1 44.99 C2.12 47.7 2.13 50.42 2.14 53.13 C2.15 55.68 2.17 58.23 2.2 60.78 C2.2 61.93 2.21 63.09 2.21 64.27 C2.22 65.28 2.23 66.3 2.23 67.34 C2 70 2 70 0 74 C0 49.58 0 25.16 0 0 Z " fill="#D556A0" transform="translate(246,171)"/>
<path d="M0 0 C4.29 0 8.58 0 13 0 C12.67 2.64 12.34 5.28 12 8 C11.67 8 11.34 8 11 8 C10.67 6.02 10.34 4.04 10 2 C8.68 2.33 7.36 2.66 6 3 C6 2.34 6 1.68 6 1 C5.34 1 4.68 1 4 1 C1.77 4.58 1.75 7.53 1.76 11.69 C1.76 12.36 1.75 13.02 1.75 13.7 C1.75 15.89 1.76 18.08 1.77 20.27 C1.77 21.8 1.77 23.33 1.77 24.85 C1.77 28.05 1.78 31.25 1.79 34.45 C1.81 38.54 1.82 42.63 1.81 46.73 C1.81 49.88 1.82 53.03 1.83 56.19 C1.83 57.69 1.83 59.2 1.83 60.71 C1.84 62.82 1.84 64.94 1.85 67.05 C1.86 68.25 1.86 69.45 1.87 70.69 C1.93 74.01 1.93 74.01 2.57 77.31 C3 80 3 80 2 82 C2.66 82 3.32 82 4 82 C4 82.99 4 83.98 4 85 C18.52 85 33.04 85 48 85 C48 85.33 48 85.66 48 86 C32.16 86 16.32 86 0 86 C0 57.62 0 29.24 0 0 Z " fill="#2A7EC9" transform="translate(59,173)"/>
<path d="M0 0 C3.4 -0.03 6.79 -0.05 10.19 -0.06 C11.15 -0.07 12.11 -0.08 13.1 -0.09 C14.03 -0.09 14.96 -0.09 15.92 -0.1 C17.2 -0.11 17.2 -0.11 18.5 -0.11 C21.09 0 23.48 0.43 26 1 C26 3.31 26 5.62 26 8 C17.42 8 8.84 8 0 8 C0 5.36 0 2.72 0 0 Z " fill="#3C42A0" transform="translate(449,203)"/>
<path d="M0 0 C0.33 0 0.66 0 1 0 C1 1.98 1 3.96 1 6 C1.72 5.98 2.44 5.97 3.17 5.95 C9.94 5.79 16.71 5.64 23.48 5.51 C26.96 5.43 30.44 5.36 33.92 5.28 C37.92 5.18 41.92 5.1 45.92 5.02 C47.17 4.99 48.42 4.96 49.7 4.93 C50.86 4.91 52.03 4.89 53.22 4.86 C54.75 4.83 54.75 4.83 56.32 4.8 C59.1 5.01 60.69 5.47 63 7 C64.01 9.09 64.01 9.09 64.69 11.5 C65.64 14.83 65.64 14.83 67 18 C67.36 20.33 67.7 22.66 68 25 C66.68 24.67 65.36 24.34 64 24 C62.4 18.39 61.96 13.83 62 8 C61.05 8.01 60.09 8.01 59.11 8.02 C39.38 8.11 19.71 8 0 7 C0 4.69 0 2.38 0 0 Z " fill="#479DD5" transform="translate(37,154)"/>
<path d="M0 0 C5.63 4.92 8.49 13.87 10 21 C10 23.31 10 25.62 10 28 C30.13 28 50.26 28 71 28 C71 29.32 71 30.64 71 32 C70.34 32 69.68 32 69 32 C69 31.01 69 30.02 69 29 C68 29.24 68 29.24 66.97 29.49 C63.44 30.1 60.01 30.15 56.44 30.12 C55.66 30.12 54.88 30.12 54.08 30.12 C39.05 30.02 24.02 29.46 9 29 C9 26.69 9 24.38 9 22 C8.34 22 7.68 22 7 22 C7 20.35 7 18.7 7 17 C6.34 16.67 5.68 16.34 5 16 C4.22 14.04 4.22 14.04 3.5 11.62 C2.59 8.57 1.8 6.71 0 4 C0 2.68 0 1.36 0 0 Z " fill="#DD689B" transform="translate(211,121)"/>
<path d="M0 0 C0.33 0 0.66 0 1 0 C3.94 15.36 2.36 31.56 -6 45 C-8.22 48.1 -10.55 51.08 -13 54 C-13.99 53.67 -14.98 53.34 -16 53 C-15.34 53 -14.68 53 -14 53 C-12.59 50.36 -11.63 47.93 -11 45 C-10.01 45 -9.02 45 -8 45 C-7.5 42.03 -7.5 42.03 -7 39 C-6.01 39 -5.02 39 -4 39 C-4.23 38.34 -4.45 37.68 -4.69 37 C-5 34 -5 34 -3.59 30.66 C-1.29 24.8 -1.19 18.72 -0.81 12.5 C-0.73 11.3 -0.65 10.09 -0.56 8.85 C-0.37 5.9 -0.18 2.95 0 0 Z " fill="#DB74A7" transform="translate(658,147)"/>
<path d="M0 0 C0.5 1.98 0.5 1.98 1 4 C-19.13 4.33 -39.26 4.66 -60 5 C-60.66 9.29 -61.32 13.58 -62 18 C-63.62 22.31 -63.62 22.31 -65 25 C-66.28 22.45 -65.85 21.44 -65.26 18.68 C-65.08 17.84 -64.9 16.99 -64.71 16.12 C-64.52 15.23 -64.33 14.35 -64.12 13.44 C-63.94 12.55 -63.75 11.66 -63.56 10.74 C-62.14 4.14 -62.14 4.14 -61 3 C-58.88 2.84 -56.76 2.75 -54.63 2.68 C-53.97 2.66 -53.32 2.64 -52.64 2.62 C-50.47 2.55 -48.3 2.5 -46.12 2.44 C-45.39 2.42 -44.65 2.4 -43.9 2.37 C-29.6 1.96 -15.31 1.88 -1 2 C-0.67 1.34 -0.34 0.68 0 0 Z " fill="#D33E82" transform="translate(281,157)"/>
<path d="M0 0 C0.99 0.33 1.98 0.66 3 1 C-3.45 8.84 -3.45 8.84 -7 11 C-7.66 11 -8.32 11 -9 11 C-9 11.66 -9 12.32 -9 13 C-10.69 13.81 -10.69 13.81 -13 14 C-15.87 11.54 -17.9 9.15 -20 6 C-17.98 6.33 -15.96 6.65 -13.95 6.98 C-12.98 6.99 -12.98 6.99 -12 7 C-11.34 6.34 -10.68 5.68 -10 5 C-9.01 5 -8.02 5 -7 5 C-7 4.34 -7 3.68 -7 3 C-5.02 3 -3.04 3 -1 3 C-0.67 2.01 -0.34 1.02 0 0 Z " fill="#4F7EC4" transform="translate(427,132)"/>
<path d="M0 0 C1.85 3.71 2.36 5.62 2.69 9.62 C2.77 10.59 2.86 11.55 2.95 12.54 C3 15 3 15 2 17 C2.66 17 3.32 17 4 17 C4 17.99 4 18.98 4 20 C18.52 20 33.04 20 48 20 C48 20.33 48 20.66 48 21 C32.16 21 16.32 21 0 21 C0 14.07 0 7.14 0 0 Z " fill="#2F64BA" transform="translate(59,238)"/>
<path d="M0 0 C0 0.99 0 1.98 0 3 C-0.93 3.43 -1.86 3.87 -2.81 4.31 C-5.93 5.76 -5.93 5.76 -7.69 7.69 C-8.12 8.12 -8.55 8.55 -9 9 C-9.99 9 -10.98 9 -12 9 C-12.06 9.56 -12.12 10.11 -12.19 10.69 C-13.33 13.94 -15.56 15.62 -18 18 C-19.3 20.17 -19.3 20.17 -20 22 C-20.66 22 -21.32 22 -22 22 C-22 22.99 -22 23.98 -22 25 C-22.66 25 -23.32 25 -24 25 C-21.76 15.29 -13.63 7.88 -6 2 C-2.49 0 -2.49 0 0 0 Z " fill="#5AABD8" transform="translate(362,115)"/>
<path d="M0 0 C0 0.33 0 0.66 0 1 C-1.28 1.05 -2.55 1.1 -3.87 1.15 C-5.54 1.22 -7.21 1.3 -8.88 1.38 C-10.14 1.42 -10.14 1.42 -11.43 1.47 C-12.63 1.53 -12.63 1.53 -13.87 1.59 C-14.61 1.62 -15.35 1.65 -16.12 1.68 C-18.24 1.85 -18.24 1.85 -20 4 C-22.41 4.28 -24.83 4.45 -27.25 4.56 C-31.92 4.79 -36.41 5.14 -41 6 C-31.42 -3.58 -12.2 -0.36 0 0 Z " fill="#5FA8D8" transform="translate(403,109)"/>
<path d="M0 0 C-0.81 1.94 -0.81 1.94 -2 4 C-2.99 4.33 -3.98 4.66 -5 5 C-5.31 5.66 -5.62 6.32 -5.94 7 C-7 9 -7 9 -9.12 9.75 C-10.05 9.87 -10.05 9.87 -11 10 C-11.1 10.56 -11.21 11.11 -11.31 11.69 C-12.72 16.42 -15.43 19.67 -19 23 C-19.15 16.28 -15.95 13.11 -11.43 8.38 C-2.88 0 -2.88 0 0 0 Z " fill="#5890CC" transform="translate(126,104)"/>
<path d="M0 0 C2.26 3.59 2.21 6.57 2.12 10.75 C2.11 11.92 2.09 13.09 2.07 14.3 C2.04 15.63 2.04 15.63 2 17 C1.01 17.33 0.02 17.66 -1 18 C-3.49 13.56 -4.24 9.07 -4 4 C-2.06 1.38 -2.06 1.38 0 0 Z " fill="#1D65BA" transform="translate(341,169)"/>
<path d="M0 0 C0.99 0.33 1.98 0.66 3 1 C3.06 1.78 3.12 2.57 3.19 3.38 C3.46 4.24 3.72 5.11 4 6 C6.39 7.11 6.39 7.11 9 8 C10.62 9.94 10.62 9.94 12 12 C12.98 13.02 13.98 14.02 15 15 C14.34 15.66 13.68 16.32 13 17 C8.77 14.81 6.45 12.36 3.69 8.5 C2.99 7.54 2.29 6.58 1.57 5.59 C0 3 0 3 0 0 Z " fill="#4173BD" transform="translate(104,182)"/>
<path d="M0 0 C0.99 0 1.98 0 3 0 C-0.04 7.44 -8.29 12.94 -15 17 C-15.66 16.67 -16.32 16.34 -17 16 C-16.67 15.34 -16.34 14.68 -16 14 C-15.34 14 -14.68 14 -14 14 C-14 13.34 -14 12.68 -14 12 C-12.68 12 -11.36 12 -10 12 C-9.67 11.01 -9.34 10.02 -9 9 C-7.56 7.31 -7.56 7.31 -6 6 C-5.34 6 -4.68 6 -4 6 C-3.34 4.68 -2.68 3.36 -2 2 C-1.34 2 -0.68 2 0 2 C0 1.34 0 0.68 0 0 Z " fill="#C975B6" transform="translate(205,193)"/>
<path d="M0 0 C3.3 0 6.6 0 10 0 C10.33 1.65 10.66 3.3 11 5 C6.38 7.12 6.38 7.12 3 6 C3.33 5.34 3.66 4.68 4 4 C2.68 3.34 1.36 2.68 0 2 C0 1.34 0 0.68 0 0 Z " fill="#2A45A4" transform="translate(402,204)"/>
<path d="M0 0 C2 3 2 3 1.57 5.19 C1.14 6.37 1.14 6.37 0.69 7.56 C0.4 8.35 0.12 9.13 -0.18 9.94 C-1 12 -1 12 -2 14 C-1.34 14.33 -0.68 14.66 0 15 C-0.97 16.68 -1.97 18.35 -3 20 C-3.33 20 -3.66 20 -4 20 C-4.49 12.46 -2.91 6.94 0 0 Z " fill="#4695D2" transform="translate(103,129)"/>
<path d="M0 0 C5.34 0.51 9.53 1.89 14.31 4.38 C14.93 4.68 15.55 4.98 16.19 5.3 C19.41 6.93 20.96 7.94 23 11 C20.12 11.12 20.12 11.12 17 11 C15 9 15 9 13 6 C9.91 4.54 9.91 4.54 6.38 3.31 C4.59 2.66 4.59 2.66 2.77 1.99 C1.86 1.66 0.94 1.34 0 1 C0 0.67 0 0.34 0 0 Z " fill="#96BBDE" transform="translate(403,110)"/>
<path d="M0 0 C0.66 0 1.32 0 2 0 C2.99 5.01 3.22 9.85 3.25 14.94 C3.27 15.71 3.29 16.48 3.31 17.28 C3.35 22.61 2.41 26.24 0 31 C-0.66 31 -1.32 31 -2 31 C-1.78 30.36 -1.57 29.71 -1.34 29.05 C1.63 19.4 1.84 9.91 0 0 Z " fill="#DF95BA" transform="translate(629,148)"/>
<path d="M0 0 C0.33 0.99 0.66 1.98 1 3 C-0.58 5.59 -0.58 5.59 -2.81 8.5 C-3.54 9.46 -4.27 10.42 -5.02 11.41 C-6 12.69 -6 12.69 -7 14 C-7.99 15.49 -7.99 15.49 -9 17 C-9.99 16.67 -10.98 16.34 -12 16 C-11.34 16 -10.68 16 -10 16 C-8.59 13.36 -7.63 10.93 -7 8 C-6.01 8 -5.02 8 -4 8 C-3.67 6.02 -3.34 4.04 -3 2 C-2.01 2 -1.02 2 0 2 C0 1.34 0 0.68 0 0 Z " fill="#E091BD" transform="translate(654,184)"/>
<path d="M0 0 C0.99 0.33 1.98 0.66 3 1 C2.07 2.15 1.13 3.3 0.19 4.44 C-0.6 5.39 -0.6 5.39 -1.39 6.37 C-3 8 -3 8 -6 9 C-6.33 7.02 -6.66 5.04 -7 3 C-5.02 3 -3.04 3 -1 3 C-0.67 2.01 -0.34 1.02 0 0 Z " fill="#6887C9" transform="translate(427,132)"/>
<path d="M0 0 C7.66 0.29 13.34 3.37 20 7 C18.2 7.61 18.2 7.61 16 8 C14.32 7.08 12.64 6.14 11.02 5.12 C7.55 3.19 3.79 2.13 0 1 C0 0.67 0 0.34 0 0 Z " fill="#CE8DBE" transform="translate(172,95)"/>
<path d="M0 0 C0.66 0.33 1.32 0.66 2 1 C1.41 10.59 1.41 10.59 -2 14 C-2.21 8.81 -1.59 4.87 0 0 Z " fill="#90418F" transform="translate(552,143)"/>
<path d="M0 0 C0.33 0 0.66 0 1 0 C1.23 3.37 1.34 5.41 -0.38 8.38 C-0.91 8.91 -1.45 9.45 -2 10 C-2.66 10 -3.32 10 -4 10 C-4.33 10.99 -4.66 11.98 -5 13 C-4.48 7.72 -2.75 4.43 0 0 Z " fill="#B67EB4" transform="translate(556,133)"/>
<path d="M0 0 C1.33 4 1.13 7.83 1 12 C0.67 12.66 0.34 13.32 0 14 C-0.66 14 -1.32 14 -2 14 C-2.37 4.59 -2.37 4.59 0 0 Z " fill="#59A5D3" transform="translate(337,140)"/>
<path d="M0 0 C2.33 2.14 3.82 4.19 5.25 7 C5.61 7.68 5.96 8.36 6.33 9.06 C7 11 7 11 6 14 C4.99 12.42 3.99 10.84 3 9.25 C2.44 8.37 1.89 7.49 1.31 6.58 C0 4 0 4 0 0 Z " fill="#DE92B9" transform="translate(211,121)"/>
<path d="M0 0 C0 3.4 -0.52 4.07 -2.5 6.69 C-2.96 7.31 -3.43 7.93 -3.91 8.57 C-4.27 9.04 -4.63 9.52 -5 10 C-5.33 9.34 -5.66 8.68 -6 8 C-6.66 7.67 -7.32 7.34 -8 7 C-7.01 6.67 -6.02 6.34 -5 6 C-4.67 5.01 -4.34 4.02 -4 3 C-3.34 3 -2.68 3 -2 3 C-2 2.34 -2 1.68 -2 1 C-1.34 0.67 -0.68 0.34 0 0 Z " fill="#CF75B1" transform="translate(214,183)"/>
<path d="M0 0 C0.99 0.33 1.98 0.66 3 1 C2.98 1.74 2.96 2.49 2.94 3.25 C2.99 5.7 3.31 7.66 4 10 C2.68 9.67 1.36 9.34 0 9 C0 6.03 0 3.06 0 0 Z " fill="#498BCC" transform="translate(101,169)"/>
<path d="M0 0 C1.65 0 3.3 0 5 0 C1.98 3.26 -1.26 5.62 -5 8 C-5.66 7.67 -6.32 7.34 -7 7 C-6.67 6.34 -6.34 5.68 -6 5 C-5.34 5 -4.68 5 -4 5 C-4 4.34 -4 3.68 -4 3 C-2.68 3 -1.36 3 0 3 C0 2.01 0 1.02 0 0 Z " fill="#C988C1" transform="translate(195,202)"/>
<path d="M0 0 C0.99 0.99 1.98 1.98 3 3 C2.34 4.32 1.68 5.64 1 7 C0.34 7 -0.32 7 -1 7 C-1.33 7.99 -1.66 8.98 -2 10 C-3.56 6.88 -2.67 4.33 -2 1 C-1.34 0.67 -0.68 0.34 0 0 Z " fill="#7E86BD" transform="translate(431,190)"/>
<path d="M0 0 C0.66 0 1.32 0 2 0 C1.5 5.66 0.45 9.88 -2 15 C-3.54 11.92 -2.37 9.65 -1.56 6.38 C-1.28 5.19 -0.99 4 -0.69 2.77 C-0.46 1.86 -0.24 0.94 0 0 Z " fill="#DE93BE" transform="translate(218,167)"/>
<path d="M0 0 C0.33 0.99 0.66 1.98 1 3 C-4.44 3.99 -4.44 3.99 -10 5 C-6.62 1.62 -4.79 0 0 0 Z " fill="#828EC4" transform="translate(136,99)"/>
<path d="M0 0 C0.66 0.33 1.32 0.66 2 1 C2.41 3.32 2.74 5.66 3 8 C1.68 8 0.36 8 -1 8 C-1.04 5.67 -1.04 3.33 -1 1 C-0.67 0.67 -0.34 0.34 0 0 Z " fill="#5D3492" transform="translate(504,203)"/>
<path d="M0 0 C1.65 0 3.3 0 5 0 C3.75 2.5 3.75 2.5 2 5 C0.68 5 -0.64 5 -2 5 C-1.34 3.35 -0.68 1.7 0 0 Z " fill="#2051B2" transform="translate(367,204)"/>
<path d="M0 0 C0.66 0.99 1.32 1.98 2 3 C1.12 6.19 1.12 6.19 0 9 C-0.66 9 -1.32 9 -2 9 C-2.33 9.66 -2.66 10.32 -3 11 C-2.53 6.94 -2.12 3.53 0 0 Z " fill="#73ADD8" transform="translate(103,129)"/>
<path d="M0 0 C4.31 0.48 6.17 1.75 9 5 C6.12 5.12 6.12 5.12 3 5 C1 3 1 3 0 0 Z " fill="#6790CC" transform="translate(417,116)"/>
<path d="M0 0 C1.32 0.33 2.64 0.66 4 1 C1.69 3.64 -0.62 6.28 -3 9 C-3.66 7.68 -4.32 6.36 -5 5 C-4.36 4.73 -3.72 4.46 -3.06 4.19 C-0.67 3.11 -0.67 3.11 0 0 Z " fill="#CB88BF" transform="translate(585,137)"/>
<path d="M0 0 C3 1 3 1 4.2 2.78 C4.55 3.49 4.89 4.2 5.25 4.94 C5.61 5.65 5.96 6.36 6.33 7.09 C6.55 7.72 6.77 8.35 7 9 C6.67 9.66 6.34 10.32 6 11 C4.99 9.74 3.99 8.46 3 7.19 C2.44 6.48 1.89 5.77 1.31 5.04 C0 3 0 3 0 0 Z " fill="#87AED2" transform="translate(104,182)"/>
<path d="M0 0 C2.31 2.31 2.5 3.48 3.12 6.62 C3.38 7.85 3.38 7.85 3.63 9.1 C3.81 10.04 3.81 10.04 4 11 C3.01 10.67 2.02 10.34 1 10 C0.67 6.7 0.34 3.4 0 0 Z " fill="#8B4492" transform="translate(551,171)"/>
<path d="M0 0 C-4.95 2.47 -4.95 2.47 -10 5 C-10.33 4.01 -10.66 3.02 -11 2 C-10.34 1.67 -9.68 1.34 -9 1 C-8.34 1.33 -7.68 1.66 -7 2 C-7 1.34 -7 0.68 -7 0 C-4 -1 -4 -1 0 0 Z " fill="#7CAFD6" transform="translate(380,135)"/>
<path d="M0 0 C0.66 0 1.32 0 2 0 C2.33 1.65 2.66 3.3 3 5 C2.34 5 1.68 5 1 5 C1 6.65 1 8.3 1 10 C0.67 10 0.34 10 0 10 C-0.19 8.52 -0.38 7.04 -0.56 5.56 C-0.67 4.74 -0.77 3.92 -0.88 3.07 C-0.92 2.38 -0.96 1.7 -1 1 C-0.67 0.67 -0.34 0.34 0 0 Z " fill="#A33681" transform="translate(575,147)"/>
<path d="M0 0 C2.97 0.5 2.97 0.5 6 1 C5.01 2.49 5.01 2.49 4 4 C2.35 3.67 0.7 3.34 -1 3 C-0.67 2.01 -0.34 1.02 0 0 Z " fill="#2558B3" transform="translate(411,136)"/>
<path d="M0 0 C0.33 0.66 0.66 1.32 1 2 C0.06 4.62 0.06 4.62 -1 7 C-1.66 7 -2.32 7 -3 7 C-3 7.99 -3 8.98 -3 10 C-3.66 10 -4.32 10 -5 10 C-3.84 6.09 -2.64 3.13 0 0 Z " fill="#6DB8E1" transform="translate(343,130)"/>
<path d="M0 0 C1.44 -0.05 2.87 -0.09 4.31 -0.12 C5.11 -0.15 5.91 -0.17 6.74 -0.2 C9 0 9 0 12 2 C11.07 1.98 10.14 1.96 9.19 1.94 C5.98 1.84 5.98 1.84 3 3 C2.01 2.01 1.02 1.02 0 0 Z " fill="#2F7FC8" transform="translate(394,110)"/>
<path d="M0 0 C2 4 2 4 1.62 6.25 C1.42 6.83 1.21 7.41 1 8 C1.66 8 2.32 8 3 8 C3 8.99 3 9.98 3 11 C2.01 11 1.02 11 0 11 C0 7.37 0 3.74 0 0 Z " fill="#175BBF" transform="translate(60,247)"/>
<path d="M0 0 C2.12 0.94 2.12 0.94 4 2 C4 2.66 4 3.32 4 4 C2.68 4.33 1.36 4.66 0 5 C-0.66 3.68 -1.32 2.36 -2 1 C-1.34 0.67 -0.68 0.34 0 0 Z " fill="#7998CC" transform="translate(414,141)"/>
<path d="M0 0 C-1.37 3.16 -1.99 3.99 -5 6 C-5.99 5.67 -6.98 5.34 -8 5 C-2.25 0 -2.25 0 0 0 Z " fill="#8BA8D3" transform="translate(126,104)"/>
<path d="M0 0 C0.99 0 1.98 0 3 0 C3.33 1.65 3.66 3.3 4 5 C3.01 5.33 2.02 5.66 1 6 C0.67 4.02 0.34 2.04 0 0 Z " fill="#4B74BE" transform="translate(417,137)"/>
</svg>
